<svg width="40" height="27" viewBox="0 0 40 27" fill="none" xmlns="http://www.w3.org/2000/svg">
<g filter="url(#filter0_i)">
<path d="M39 13.5C39 8.80558 35.1944 5 30.5 5H13.5C8.80558 5 5 8.80558 5 13.5V13.5C5 18.1944 8.80558 22 13.5 22H30.5C35.1944 22 39 18.1944 39 13.5V13.5Z" fill="url(#paint0_linear)"/>
</g>
<path d="M13.5 4.5H30.5C35.4706 4.5 39.5 8.52944 39.5 13.5C39.5 18.4706 35.4706 22.5 30.5 22.5H13.5C8.52944 22.5 4.5 18.4706 4.5 13.5C4.5 8.52944 8.52944 4.5 13.5 4.5Z" stroke="url(#paint1_linear)"/>
<g filter="url(#filter1_d)">
<rect width="17" height="17" rx="8.5" transform="matrix(-1 0 0 1 22 5)" fill="#ECECEC"/>
<rect x="0.5" y="-0.5" width="18" height="18" rx="9" transform="matrix(-1 0 0 1 23 5)" stroke="url(#paint2_linear)"/>
</g>
<defs>
<filter id="filter0_i" x="4" y="4" width="36" height="22" filterUnits="userSpaceOnUse" color-interpolation-filters="sRGB">
<feFlood flood-opacity="0" result="BackgroundImageFix"/>
<feBlend mode="normal" in="SourceGraphic" in2="BackgroundImageFix" result="shape"/>
<feColorMatrix in="SourceAlpha" type="matrix" values="0 0 0 0 0 0 0 0 0 0 0 0 0 0 0 0 0 0 127 0" result="hardAlpha"/>
<feOffset dy="3"/>
<feGaussianBlur stdDeviation="10"/>
<feComposite in2="hardAlpha" operator="arithmetic" k2="-1" k3="1"/>
<feColorMatrix type="matrix" values="0 0 0 0 0 0 0 0 0 0 0 0 0 0 0 0 0 0 0.15 0"/>
<feBlend mode="normal" in2="shape" result="effect1_innerShadow"/>
</filter>
<filter id="filter1_d" x="0" y="0" width="27" height="27" filterUnits="userSpaceOnUse" color-interpolation-filters="sRGB">
<feFlood flood-opacity="0" result="BackgroundImageFix"/>
<feColorMatrix in="SourceAlpha" type="matrix" values="0 0 0 0 0 0 0 0 0 0 0 0 0 0 0 0 0 0 127 0"/>
<feOffset/>
<feGaussianBlur stdDeviation="2"/>
<feColorMatrix type="matrix" values="0 0 0 0 0 0 0 0 0 0 0 0 0 0 0 0 0 0 0.35 0"/>
<feBlend mode="normal" in2="BackgroundImageFix" result="effect1_dropShadow"/>
<feBlend mode="normal" in="SourceGraphic" in2="effect1_dropShadow" result="shape"/>
</filter>
<linearGradient id="paint0_linear" x1="22" y1="5" x2="22" y2="22" gradientUnits="userSpaceOnUse">
<stop stop-color="#282B30"/>
<stop offset="1" stop-color="#1E2124"/>
</linearGradient>
<linearGradient id="paint1_linear" x1="22" y1="5" x2="22" y2="22" gradientUnits="userSpaceOnUse">
<stop stop-color="#191A1D"/>
<stop offset="1" stop-color="#373C42"/>
</linearGradient>
<linearGradient id="paint2_linear" x1="8.5" y1="0" x2="8.5" y2="17" gradientUnits="userSpaceOnUse">
<stop stop-color="#16181C"/>
<stop offset="1" stop-color="#1E1E1F"/>
</linearGradient>
</defs>
</svg>
