<svg width="52" height="77" viewBox="0 0 52 77" fill="none" xmlns="http://www.w3.org/2000/svg">
<path d="M3.67317 28.5684L9.10987 27.5547V55.6687V55.7532L9.18208 55.797L16.0029 59.9342L16.2307 60.0724V59.806V26.4347L21.823 25.4196V70.9923L3.67317 57.9933V28.5684ZM24.6461 22.5175H24.5145L24.501 22.3675H24.4961H24.3461V22.3931L21.4406 22.9192L21.4406 22.9192L15.5484 23.9888L15.5483 23.9888L13.5309 24.3534L13.4075 24.3757V24.501V26.3095V55.3098L11.9379 54.4175V27.3791V24.6371V24.4565L11.7604 24.4897L8.71219 25.0585L8.71216 25.0585L2.97549 26.128L2.97543 26.128L0.972443 26.5024L0.85 26.5253V26.6498V28.4486V58.0752V59.1302V59.2072L0.912572 59.2521L1.84114 59.9181L1.84123 59.9182L20.291 73.132L20.291 73.132L24.4088 76.083L24.6461 76.2531V75.9611V71.2891V25.24V22.5175Z" fill="#49BDAC" stroke="#49BDAC" stroke-width="0.3"/>
<path d="M36.0723 59.5435V59.8096L36.3 59.6718L43.1354 55.5346L43.2077 55.4908V55.4062V32.9845V32.8633L43.0892 32.8378L36.2538 31.3696L36.0723 31.3307V31.5163V59.5435ZM28.0971 22.447L27.9243 22.4204V22.5952V25.24V71.2843V76V76.294L28.1623 76.1215L32.2995 73.1219L32.2996 73.1218L50.5354 59.908L50.4474 59.7866L50.5354 59.908L51.4543 59.242L51.5162 59.197V59.1205V58.0753V28.0451V26.1783V26.0495L51.3889 26.03L49.2937 25.7091L49.2936 25.7091L31.0627 22.904L31.0627 22.904L28.0971 22.447ZM30.7523 70.9855V25.4148L48.6882 28.169V57.989L30.7523 70.9855ZM40.3846 54.1548L38.9052 55.0481V34.5316L40.3846 34.8509V54.1548Z" fill="#49BDAC" stroke="#49BDAC" stroke-width="0.3"/>
<path d="M38.3274 2.9648H38.1774V3.1148V9.06611H32.5851V1V0.85H32.4351H19.9943H19.8443V1V9.05639H14.0624V3.1148V2.9648H13.9124H1H0.85V3.1148V22.0459V22.2235L1.0251 22.1938L26.2029 17.9198L51.3418 22.0675L51.5162 22.0963V21.9195V3.1148V2.9648H51.3662H38.3274ZM22.2112 11.4955H22.3612V11.3455V3.28424H30.0683V11.3504V11.5004H30.2183H40.5394H40.6894V11.3504V5.39904H48.9945V19.2194L26.2076 15.4465L26.1828 15.4424L26.1581 15.4466L3.36203 19.3063V5.39904H11.5455V11.3455V11.4955H11.6955H22.2112Z" fill="#49BDAC" stroke="#49BDAC" stroke-width="0.3"/>
</svg>
