<svg width="384" height="388" viewBox="0 0 384 388" fill="none" xmlns="http://www.w3.org/2000/svg">
<path d="M191.972 383.944C297.995 383.944 383.944 297.995 383.944 191.972C383.944 85.9489 297.995 0 191.972 0C85.9489 0 0 85.9489 0 191.972C0 297.995 85.9489 383.944 191.972 383.944Z" fill="#49BDAC"/>
<path d="M191.972 383.944C245.778 383.944 294.718 361.773 329.597 325.812C297.692 291.473 247.941 269.572 191.972 269.572C136.003 269.572 86.5227 291.744 54.3471 325.812C89.2266 361.773 137.895 383.944 191.972 383.944Z" fill="#F6CD01"/>
<path d="M191.972 323.919C160.878 323.919 137.084 302.288 140.87 277.683L145.466 249.564H238.749L242.804 278.224C246.59 302.288 222.796 323.919 191.972 323.919Z" fill="#9F7248"/>
<path d="M191.972 276.332C156.552 276.332 127.621 247.4 127.621 211.98V94.0932C127.621 79.4925 139.518 67.8661 153.848 67.8661H230.096C244.697 67.8661 256.323 79.7629 256.323 94.0932V211.98C256.323 247.4 227.392 276.332 191.972 276.332Z" fill="#231F20"/>
<path d="M122.213 147.088C122.213 153.848 125.728 158.985 130.054 158.985V134.921C125.999 135.191 122.213 140.329 122.213 147.088Z" fill="#8A5E3C"/>
<path d="M260.92 147.088C260.92 153.848 257.405 158.985 253.079 158.985V134.921C257.405 135.191 260.92 140.329 260.92 147.088Z" fill="#8A5E3C"/>
<path d="M222.255 206.032H161.689C142.762 206.032 127.351 190.62 127.351 171.693V120.05C127.351 111.398 134.381 104.368 143.033 104.368H241.182C249.834 104.368 256.864 111.398 256.864 120.05V171.693C256.594 190.62 241.182 206.032 222.255 206.032Z" fill="#A87C50"/>
<path d="M191.972 245.508C204.41 245.508 214.414 238.208 214.414 229.014H169.53C169.53 238.208 179.535 245.508 191.972 245.508Z" fill="#F0F1F1"/>
<path d="M162.771 170.341C148.44 170.341 136.814 158.715 136.814 144.384C136.814 130.054 148.44 118.428 162.771 118.428C177.101 118.428 188.728 130.054 188.728 144.384C188.728 158.715 177.101 170.341 162.771 170.341ZM162.771 122.483C150.603 122.483 140.87 132.217 140.87 144.384C140.87 156.552 150.603 166.286 162.771 166.286C174.938 166.286 184.672 156.552 184.672 144.384C184.672 132.217 174.668 122.483 162.771 122.483Z" fill="#231F20"/>
<path d="M221.174 170.341C206.843 170.341 195.217 158.715 195.217 144.384C195.217 130.054 206.843 118.428 221.174 118.428C235.504 118.428 247.13 130.054 247.13 144.384C247.13 158.715 235.504 170.341 221.174 170.341ZM221.174 122.483C209.006 122.483 199.272 132.217 199.272 144.384C199.272 156.552 209.006 166.286 221.174 166.286C233.341 166.286 243.075 156.552 243.075 144.384C243.075 132.217 233.07 122.483 221.174 122.483Z" fill="#231F20"/>
<path d="M198.461 142.222H185.483V146.548H198.461V142.222Z" fill="#231F20"/>
<path d="M256.323 142.222H243.886V146.548H256.323V142.222Z" fill="#231F20"/>
<path d="M138.707 142.222H127.08V146.548H138.707V142.222Z" fill="#231F20"/>
</svg>
