<svg width="23" height="23" viewBox="0 0 23 23" fill="none" xmlns="http://www.w3.org/2000/svg">
<path d="M14.274 10.9998L22.0205 18.7462L22.0341 18.7599L22.0467 18.7746C22.3106 19.0828 22.4485 19.4792 22.4329 19.8847C22.4172 20.2902 22.2491 20.6748 21.9622 20.9617C21.6753 21.2487 21.2906 21.4168 20.8852 21.4324C20.4797 21.4481 20.0832 21.3102 19.775 21.0462L19.7603 21.0337L19.7467 21.02L12 13.2733L4.25494 21.0078C4.11308 21.1691 3.94034 21.3004 3.74685 21.394C3.54697 21.4907 3.32925 21.5451 3.10738 21.5536C2.88549 21.5622 2.66424 21.5248 2.45749 21.4438C2.25075 21.3628 2.06298 21.24 1.90597 21.083C1.90597 21.083 1.90597 21.083 1.90596 21.083L2.25952 20.7294C2.15124 20.6211 2.06651 20.4916 2.01064 20.349C1.95478 20.2065 1.929 20.0539 1.93491 19.9008C1.94082 19.7478 1.9783 19.5977 2.04499 19.4598C2.11168 19.322 2.20615 19.1994 2.32246 19.0998L14.274 10.9998ZM14.274 10.9998L22.0205 3.25335L22.0341 3.23969L22.0467 3.22502C22.3106 2.91681 22.4485 2.52035 22.4329 2.11488C22.4172 1.7094 22.2491 1.32477 21.9622 1.03784M14.274 10.9998L21.9622 1.03784M21.9622 1.03784C21.6753 0.750905 21.2906 0.582813 20.8852 0.567152C20.4797 0.55149 20.0832 0.689412 19.775 0.953352L19.7603 0.965915L19.7467 0.979572L12.0005 8.72578L4.25404 0.968703L4.24027 0.954916L4.22547 0.942242C3.91726 0.678299 3.52081 0.540379 3.11533 0.556041C2.70985 0.571703 2.32522 0.739793 2.03829 1.02672C1.75136 1.31365 1.58326 1.69829 1.5676 2.10377C1.55194 2.50925 1.68986 2.9057 1.9538 3.21391L1.96625 3.22845L1.97978 3.24199L9.72647 10.9993L1.98144 18.7337L21.9622 1.03783L21.6092 1.39084L21.9622 1.03784Z" fill="white" stroke="white"/>
</svg>
