<svg width="20" height="16" viewBox="0 0 20 16" fill="none" xmlns="http://www.w3.org/2000/svg">
<path d="M20 1.97116C19.28 2.29021 18.5065 2.50579 17.6934 2.60323C18.5324 2.10119 19.1601 1.31104 19.4594 0.38021C18.6711 0.848432 17.8083 1.17801 16.9087 1.35461C16.3036 0.708631 15.5023 0.280464 14.629 0.136586C13.7557 -0.00729116 12.8594 0.141171 12.0791 0.558925C11.2988 0.976678 10.6783 1.64035 10.3139 2.4469C9.94946 3.25345 9.8615 4.15775 10.0637 5.01941C8.46642 4.93921 6.90388 4.52406 5.47745 3.80089C4.05102 3.07772 2.79259 2.0627 1.78384 0.82171C1.43891 1.4167 1.24058 2.10654 1.24058 2.84123C1.2402 3.50261 1.40307 4.15386 1.71475 4.7372C2.02642 5.32054 2.47727 5.81793 3.02728 6.18524C2.38941 6.16495 1.76562 5.99259 1.20782 5.68252V5.73426C1.20775 6.66187 1.52862 7.56094 2.11598 8.27892C2.70334 8.99689 3.52101 9.48953 4.43025 9.67327C3.83852 9.83341 3.21814 9.857 2.61596 9.74225C2.87249 10.5404 3.3722 11.2384 4.04511 11.7384C4.71803 12.2385 5.53048 12.5156 6.36871 12.5309C4.94576 13.648 3.18843 14.2539 1.37941 14.2512C1.05897 14.2513 0.738788 14.2326 0.420532 14.1952C2.25679 15.3758 4.39432 16.0024 6.57739 16C13.9673 16 18.0072 9.87936 18.0072 4.57101C18.0072 4.39855 18.0029 4.22436 17.9952 4.0519C18.781 3.48362 19.4593 2.77991 19.9983 1.97375L20 1.97116Z" fill="#49BDAC"/>
</svg>
